<?xml version="1.0" encoding="utf-8"?>
<!--Generator: Adobe Illustrator 21.0.2, SVG Export Plug-In . SVG Version: 6.00 Build 0)-->
<svg xmlns="http://www.w3.org/2000/svg" xmlns:xlink="http://www.w3.org/1999/xlink" id="Layer_1" x="0px" y="0px" style="enable-background:new 0 0 1366 375.8" version="1.1" viewBox="0 0 1366 375.8" xml:space="preserve">
    <style type="text/css">
        .st0{fill:#C7203D;} .st1{fill:#282525;} .st2{fill:#2E2E2E;}
    </style>
    <g id="New_Layer">
        <g>
            <path d="M788.5,22c0.7,25.7-1.8,42.3-8.3,55.1c-3.1,6.3-6.6,9.9-15.8,16.8c-32.7,24.5-48.4,50.7-48.2,81.2
			c0,23.3,8.1,37.7,26.5,46.7c9.1,4.6,10.8,4.9,25.4,4.9c14.3,0,16.2-0.3,24.2-4.4c17.7-9,27.7-25.9,27.7-47
			c0.1-11.1-0.3-12.4-6.9-25.4c-4-7.7-7.1-15.6-6.9-18c0.1-6.2,3.5-13.4,9.7-20.8C835.4,88,832,67.6,800.1,18.9L787.7,0L788.5,22z
			 M808.9,66.1c4.4,9.6,5,21.7,1.3,28.8c-1.3,2.7-5,7.5-8.3,11.1c-7.7,8.3-11.9,18.3-11.9,28.2c-0.1,6.5,1,10.3,5.9,20.2
			c7.2,14.7,8.6,20.9,6.2,30.2c-2.2,9.4-9,17.5-18.3,21.8c-18.3,8.6-41.1-0.4-47.3-18.3c-4.4-13.3-1.9-31.7,6.3-46
			c5-8.7,20.9-25.2,32-33.2c17-12.2,24.8-23.9,27.7-41.4c0.9-5.2,1.9-9.4,2.2-9.4C805,58,806.8,61.7,808.9,66.1z" class="st0"/>
            <path d="M310.8,124.1c-2.5,0.4-2.7,4.1-2.7,51.3v50.7h5.2h5.2v-22.6c0-24.3,1.6-30.7,9-37.5
			c7.1-6.3,18.4-8.3,26.2-4.1c7.7,4,9,9.4,9,38.2V226h5.2h5.2v-23.6c0-12.8-0.7-26.8-1.6-31c-2.8-13.4-12.1-20.8-25.5-20.8
			c-9.4,0-16.2,2.5-22.6,8.7l-4.9,4.4v-19.6c0-17.4-0.3-19.6-2.5-20.2C314.5,123.8,312.1,123.8,310.8,124.1z" class="st1"/>
            <path d="M259.5,138.2v14l-6.2,0.4c-5.6,0.4-6.3,0.9-6.3,4.1s0.7,3.7,6.3,4.1l6.2,0.4v32.6v32.3h5.2h5.2v-32.4v-32.4
			h7.4c7.2,0,7.4-0.1,7.4-4.4s-0.1-4.4-7.4-4.4h-7.4v-14v-14h-5.2h-5.2V138.2z" class="st1"/>
            <path d="M964.7,126.4c-30.2,9.9-44.4,39.8-33.3,70.6c8.8,24.8,39.1,37.9,66.9,29c9.6-2.9,22.9-11.5,24.5-15.6
			c0.6-1.5-1.3-4.6-5.2-8.3l-5.9-6l-7.2,5.2c-16.8,12.2-34.6,11.6-47.8-1.6c-5.8-5.6-7.2-8.3-8.7-15.3c-2.5-12.1,0-21.7,7.8-30.1
			c7.4-8,14-10.9,24.8-10.9c9.4-0.1,17.4,2.8,25.4,9.3l5.8,4.4l6.5-6.3l6.5-6.3l-4.9-5c-2.5-2.7-9-6.9-14.2-9.6
			c-8-3.8-11.4-4.6-22.1-5C975.6,124.5,968.5,125.1,964.7,126.4z" class="st1"/>
            <path d="M0,176v50.1h5.2h5.2l0.3-37.2l0.4-37l32.3,37c17.7,20.5,32.9,37.2,33.5,37.2c0.7,0,1.3-22.6,1.3-50.1v-50.2
			H73h-5.2l-0.3,37.6L67.1,201l-32.4-37.6c-17.9-20.6-32.9-37.6-33.5-37.6C0.4,125.8,0,148.4,0,176z" class="st1"/>
            <path d="M650.2,136.4v9.9l8.8-0.6l8.8-0.4v40.5v40.4l9.6-0.4l9.6-0.4l0.4-39.8c0.3-38.9,0.3-39.8,3.2-39.4
			c1.6,0.1,5.8-0.1,9.3-0.6l6.3-0.7l-0.4-9l-0.4-9l-27.7-0.1l-27.6-0.1v9.7L650.2,136.4L650.2,136.4z" class="st1"/>
            <path d="M1056.1,126.9l-6.3,0.6v49.3V226h9.6h9.6v-21.4v-21.4h17h17v21.4V226h9.6h9.6v-49.2v-49.2l-7.7-0.6
			c-4.3-0.3-8.7-0.3-9.6,0c-1.5,0.4-1.9,5.6-1.9,18.9v18.3h-17h-17v-18.4c0-10.2-0.6-18.4-1.3-18.4s-2.2-0.1-3.4-0.4
			C1063.2,126.6,1059.5,126.6,1056.1,126.9z" class="st1"/>
            <path d="M846.3,176.7v49.4h9.6h9.6l0.1-21.1c0-24.5-0.7-24.6,14.2,3.2l9,17.1l10.5,0.4c5.8,0.3,10.5,0,10.5-0.4
			c0-0.6-1.6-3.7-3.5-7.1s-6.9-12.8-11.2-20.9c-7.1-13.4-7.5-14.7-5.2-16.2c6.5-3.7,12.5-10.2,14.2-15c2.5-8,1-21.4-3.2-27.6
			c-6-9.1-12.5-11.2-34.9-11.2h-19.5L846.3,176.7L846.3,176.7z M884.2,148.2c2.5,2.1,2.5,12.2-0.1,14.3c-1.2,1-5.9,2.2-10.3,2.7
			l-8.3,0.9v-10.8v-10.8l8.4,1C878.5,146.2,883.2,147.4,884.2,148.2z" class="st1"/>
            <path d="M129.9,151.2c-22,3.8-35.2,25.9-29.5,49c2.1,8.1,10.9,19.8,17.7,23.3c17.3,8.8,39.1,4.1,50-10.8
			c6.2-8.6,7.8-15,7.1-26.5C173.4,162.4,153.6,147.1,129.9,151.2z M148.9,163c3.5,1.9,8.4,5.9,10.9,9c3.7,4.6,4.6,7.2,5,15
			c1.2,17.4-8.7,29.8-24.8,31.4c-21.4,2.1-37.2-20.3-28.8-40.7c3.1-7.2,7.7-11.9,14.7-15.2C134,158.9,141.1,159,148.9,163z" class="st1"/>
            <path d="M218.5,151c-2.8,0.6-7.2,3.2-10,5.9l-5,4.9v-4.7c0-4.3-0.4-4.7-4.4-4.7h-4.4v36.9v36.9h4.3h4.3l0.6-24.8
			c0.4-19.6,1.2-25.7,3.2-30.1c3.7-7.8,7.7-10.8,14.2-10.8c4.6,0,6-0.7,8-3.8c2.4-3.8,2.2-4-1.8-5.3
			C225.1,150.6,221.2,150.5,218.5,151z" class="st1"/>
            <path d="M425.4,150.9c-19,2.7-33.3,22.1-31.3,42.3c1.6,15.3,12.2,29.5,24.9,33c8.8,2.4,21.7,1.9,28.9-1
			c5.8-2.2,19.5-15.3,19.5-18.4c0-0.7-1.6-2.2-3.7-3.1c-3.4-1.5-4.1-1.2-9.3,4.4c-6.8,7.4-14,10.6-23.1,10.6
			c-13,0-24.8-9.9-26.8-22.7l-0.9-5.3h33.6h33.5l-1-6.9C466.4,161.5,447.6,147.8,425.4,150.9z M447.5,164.2
			c4.7,2.9,11.1,12.2,11.1,16.2c0,0.9-9.1,1.5-26.5,1.5c-19.2,0-26.5-0.4-26.5-1.8c0-4.4,7.7-14.3,13.6-17.3
			C427,158.7,439.7,159.3,447.5,164.2z" class="st1"/>
            <path d="M516.5,151.8c-3.1,1-7.1,3.5-8.7,5.6c-3.7,4.1-5.3,3.5-4.1-1.5c0.9-3.2,0.4-3.5-4.4-3.5H494v36.9v36.9h4.3
			c2.9,0,4.7-0.9,5.2-2.7c0.4-1.3,0.7-12.2,0.7-24.2c-0.1-19.5,0.1-22.4,3.1-28.5c3.5-7.4,10-11.8,15.5-10.5c2.5,0.6,4-0.1,5.8-2.8
			c1.3-2.1,2.1-4.3,1.8-5C528.7,150.2,522.2,149.9,516.5,151.8z" class="st1"/>
            <path d="M581.8,151c-6.9,1.6-14.7,6.3-17.8,10.6c-2.1,3.1-2.2,2.9-2.2-3.1s-0.1-6.2-5.2-6.2h-5.2v36.9v36.9h5.2h5.2
			v-22.6c0-24.3,1.6-30.7,9-37.5c7.1-6.3,18.4-8.3,26.2-4.1c7.4,3.7,9,10.8,9,39.1v25.1h5.2h5.2v-23.6c0-27.6-1.6-36.7-7.5-43.5
			C602.6,152.1,591.7,148.8,581.8,151z" class="st1"/>
            <path d="M710.2,231c-3.7,2.7-6.9,5.5-6.9,6.5c0,2.8,13.3,13.3,23.3,18.1c21.5,10.5,46.7,11.6,73.3,3.4
			c4.1-1.2,8-2.8,8.7-3.5c0.9-0.7,0-4.3-2.1-8.8c-4-8.3-2.5-8-19.2-3.5c-23.9,6.5-49.2,1.6-65.6-12.7l-4.6-4.1L710.2,231z" class="st1"/>
            <path d="M713.5,270.6c-0.1,5.9-0.3,12.4-0.6,14.4c-0.1,2.1-0.7,18.4-1.3,36.4c-1,30.7-0.9,33,1.8,39.2
			c1.6,3.7,4.6,7.7,6.5,8.8c5,3.4,23.3,7.2,28.8,6.2c8-1.5,18.1-12.1,18.1-18.9c0-1-3.4-3.1-7.8-4.4c-9.6-3.1-9.9-3.1-9.9-0.4
			c0,3.7-3.8,5.5-10,4.4c-3.1-0.4-6.5-1.3-7.5-1.9c-2.4-1.5-2.4-4-1-48.1l1.2-38.3l-8-3.7c-4.3-2.1-8.3-4-8.8-4.1
			C714.1,260,713.5,264.6,713.5,270.6z" class="st1"/>
            <path d="M804,296c-11.6,5.3-12.5,23.6-1.6,30.5c5.8,3.5,14.7,3.2,20.8-0.9c3.8-2.5,4-2.8,1.6-5.3
			c-2.4-2.7-2.8-2.7-5.2-0.4c-4.1,3.8-11.6,3.1-15.6-1.5c-1.8-2.2-3.4-5.3-3.4-6.8s1.6-4.6,3.4-6.8c4-4.6,11.5-5.3,15.6-1.5
			c2.4,2.2,2.8,2.1,5.2-0.4c2.5-2.8,2.5-2.9-1.2-5.3C818.5,294.2,809.6,293.5,804,296z" class="st1"/>
            <path d="M873.6,295.4c-13.4,5.5-14.2,25.5-1.2,31.7c12.5,5.9,25.8-3.4,24.6-17.3C896,298.5,883.9,291.1,873.6,295.4z
			 M887.6,304.2c9.6,9.6-5,24.2-15,15.2c-3.4-2.9-3.4-11.8-0.1-15.5C875.7,300.4,883.8,300.4,887.6,304.2z" class="st1"/>
            <path d="M1003.8,295.7c-5.2,4-3.8,10.6,3.2,17c3.2,2.9,5.9,6.2,5.9,7.2c0,2.8-3.4,3.4-6.2,0.9
			c-3.1-2.7-7.5-1.2-6.8,2.2c0.7,3.8,7.4,6.9,11.9,5.8c2.2-0.4,5-2.7,6.3-4.6c3.1-4.9,1-10.3-6-15.9c-6.6-5.3-6.6-7.5-0.1-6.3
			s8.6-1.5,3.8-5.3C1012,293.5,1007.2,293.2,1003.8,295.7z" class="st1"/>
            <path d="M1340.7,296.1c-12.4,5.3-12.2,24.9,0.1,30.8c11.9,5.6,22.1,0.7,24.9-12.1c0.7-3.1,0.3-3.2-8-3.2
			c-7.7,0-8.7,0.3-8.7,2.9c0,2.4,1,2.9,4.7,2.9c4.4,0,4.6,0.1,2.4,2.5c-3.2,3.1-11.2,2.8-14.7-0.7c-3.7-3.5-3.8-11.2-0.4-15
			c2.9-3.2,10.9-4,15.8-1.3c2.4,1.3,3.5,1.2,5.3-0.6c1.9-2.1,1.6-2.7-2.8-5.3C1353.5,293.5,1347.5,293.2,1340.7,296.1z" class="st2"/>
            <path d="M934.8,311.6v16.2h3.7c3.5,0,3.7-0.3,3.7-9.9v-10l6.8,10c5.2,7.8,7.4,10,9.7,9.6c2.9-0.4,3.1-1.3,3.1-15.9
			s-0.1-15.5-3.1-15.9c-2.8-0.4-3.1,0.3-3.5,9.6l-0.4,9.9l-6.5-9.9c-4.9-7.7-7.2-9.9-9.9-9.9C934.8,295.4,934.8,295.5,934.8,311.6z" class="st1"/>
            <path d="M1057.5,309.5c0.4,12.7,0.7,14.4,4,17c4.4,3.5,10.6,3.5,15,0c2.9-2.4,3.4-4.3,4-17l0.6-14.2h-3.8
			c-3.8,0-3.8,0-3.8,12.2c0,13.3-1.5,16.7-6.2,14.2c-2.2-1.2-2.7-3.2-2.7-13.9c0-12.5,0-12.5-3.8-12.5h-3.8L1057.5,309.5z" class="st1"/>
            <path d="M1119.1,311.6v16.2h8.1c7.1,0,8.1-0.3,8.1-2.9c0-2.4-1-2.9-4.4-2.9h-4.4v-13.3c0-13.1,0-13.3-3.7-13.3h-3.7
			V311.6z" class="st1"/>
            <path d="M1166.3,298.3c0,1.9,1,2.9,2.9,2.9c2.8,0,2.9,1,2.9,13.3c0,13.1,0,13.3,3.7,13.3s3.7-0.1,3.7-13.3
			c0-12.2,0.1-13.3,2.9-13.3c1.9,0,2.9-1,2.9-2.9c0-2.7-1-2.9-9.6-2.9C1167.3,295.4,1166.3,295.7,1166.3,298.3z" class="st1"/>
            <path d="M1220.8,311.6c0,16.1,0,16.4,3.2,15.9c3.1-0.4,3.2-1.2,3.2-15.9c0-14.7-0.1-15.5-3.2-15.9
			C1220.8,295.2,1220.8,295.5,1220.8,311.6z" class="st2"/>
            <path d="M1266.5,311.6c0,16.2,0,16.2,3.5,16.2c3.4,0,3.5-0.3,2.8-8.8c-0.3-5.2,0-8.8,0.7-8.8s4,4,7.1,8.8
			c4.3,6.5,6.6,8.8,9.1,8.8c3.1,0,3.2-0.4,3.2-16.2c0-15-0.1-16.2-2.9-16.2c-2.5,0-2.8,1.2-3.2,9.9l-0.4,10l-6.6-9.9
			c-4.9-7.4-7.5-10-9.9-10C1266.7,295.4,1266.5,295.8,1266.5,311.6z" class="st2"/>
        </g>
    </g>
    <g id="MasterLayer_1"/>
</svg>
